<svg xmlns="http://www.w3.org/2000/svg" viewBox="0 0 128 200" width="128" height="200">
	<style>
		tspan { white-space:pre }
		.shp0 { fill: #d5b048 } 
		.shp1 { fill: #fffffe } 
		.shp2 { fill: #43a1d5 } 
		.shp3 { fill: #173e69 } 
	</style>
	<g >
		<path class="shp0" d="M39.75 0.82C39.65 1.03 39.32 1.96 39.01 2.88C38.69 3.81 38.25 5.14 38.03 5.85C37.8 6.55 37.54 7.38 37.46 7.69C37.37 8 37.01 9.08 36.65 10.1C36.3 11.11 35.92 11.99 35.8 12.06C35.69 12.13 32.96 12.17 29.73 12.14C26.51 12.12 23.82 12.14 23.77 12.18C23.71 12.22 24.3 12.73 25.07 13.31C25.85 13.9 26.84 14.62 27.27 14.92C27.71 15.22 28.18 15.55 28.31 15.66C28.45 15.77 29.06 16.22 29.68 16.68C30.3 17.13 31.16 17.74 31.6 18.03C32.04 18.33 32.67 18.81 33 19.1L33.61 19.63C33.14 21 32.62 22.58 32.16 24.04C31.69 25.49 31.25 26.83 31.18 27C31.1 27.18 30.79 28.17 30.48 29.21C30.17 30.24 29.92 31.16 29.92 31.25C29.92 31.34 30.15 31.24 30.44 31.02C30.73 30.81 31.4 30.32 31.95 29.94C32.49 29.56 33.5 28.84 34.19 28.35C34.88 27.86 35.55 27.35 35.68 27.22C35.81 27.09 36.39 26.67 36.96 26.28C37.53 25.9 38.38 25.27 38.84 24.89C39.3 24.51 39.79 24.2 39.92 24.2C40.05 24.2 40.47 24.46 40.84 24.78C41.21 25.1 41.66 25.43 41.84 25.52C42.02 25.61 42.2 25.73 42.24 25.79C42.28 25.84 42.72 26.18 43.2 26.54C43.68 26.9 44.62 27.57 45.28 28.02C45.94 28.47 46.62 28.97 46.8 29.13C46.98 29.3 47.44 29.63 47.84 29.88C48.24 30.13 48.87 30.57 49.24 30.87C49.79 31.31 49.92 31.36 49.92 31.13C49.92 30.98 49.56 29.73 49.12 28.37C48.68 27 47.96 24.76 47.52 23.4C47.08 22.03 46.61 20.61 46.48 20.23L46.24 19.55C47.54 18.6 49.4 17.25 51.2 15.95C53 14.64 54.87 13.28 55.35 12.92L56.22 12.26C55.12 12.2 52.35 12.16 49.37 12.14L43.93 12.1C43.63 11.48 43.24 10.36 42.88 9.21C42.52 8.07 41.75 5.69 41.17 3.93C40.59 2.16 40.07 0.66 40.02 0.57C39.96 0.49 39.84 0.6 39.75 0.82ZM86.83 1.64C86.6 2.28 86.37 3.02 86.31 3.29C86.24 3.55 85.99 4.31 85.75 4.97C85.51 5.63 84.89 7.48 84.38 9.09C83.46 11.93 83.43 12 82.96 12.09C82.7 12.14 79.89 12.18 76.72 12.19C71.58 12.19 70.99 12.22 71.28 12.43C71.46 12.56 71.71 12.76 71.84 12.86C71.98 12.97 72.48 13.37 72.96 13.74C73.45 14.11 73.91 14.42 74 14.43C74.09 14.43 74.41 14.65 74.72 14.92C75.03 15.18 75.35 15.45 75.44 15.52C75.53 15.58 75.96 15.88 76.4 16.18C76.84 16.48 77.24 16.77 77.28 16.82C77.32 16.87 77.76 17.2 78.24 17.56C78.72 17.91 79.37 18.36 79.68 18.55C79.99 18.74 80.4 19.04 80.6 19.22C80.92 19.52 80.94 19.62 80.79 20.15C80.7 20.48 80.58 20.86 80.53 20.99C80.47 21.13 80.3 21.67 80.15 22.2C80 22.72 79.76 23.48 79.62 23.88C79.48 24.27 79.08 25.46 78.72 26.52C78.37 27.58 78.05 28.63 78 28.85C77.96 29.07 77.78 29.66 77.6 30.17C77.42 30.68 77.28 31.13 77.28 31.17C77.28 31.21 77.33 31.25 77.4 31.25C77.47 31.25 78.31 30.67 79.28 29.96C80.25 29.26 81.4 28.44 81.84 28.13C82.28 27.83 83.68 26.82 84.96 25.88C86.9 24.45 87.33 24.19 87.6 24.32C87.78 24.41 88.24 24.74 88.64 25.06C89.04 25.38 89.43 25.7 89.52 25.77C89.61 25.84 89.9 26.04 90.16 26.21C90.42 26.38 91.08 26.84 91.61 27.24C92.14 27.64 92.78 28.11 93.03 28.29C93.28 28.46 93.67 28.76 93.9 28.94C94.13 29.12 94.97 29.72 95.76 30.26C96.55 30.81 97.25 31.26 97.32 31.25C97.39 31.25 97.41 31.16 97.37 31.05C97.33 30.94 96.86 29.44 96.32 27.72C95.78 26.01 95.27 24.42 95.18 24.2C95.09 23.98 94.87 23.37 94.69 22.84C94.51 22.31 94.35 21.77 94.33 21.63C94.31 21.5 94.24 21.25 94.18 21.07C94.11 20.9 93.99 20.59 93.91 20.39C93.83 20.19 93.76 19.89 93.76 19.71C93.76 19.5 94.12 19.14 94.84 18.64C95.43 18.23 96.51 17.45 97.23 16.92C97.95 16.38 99.45 15.3 100.57 14.5C101.69 13.71 102.86 12.86 103.18 12.61C103.65 12.25 103.7 12.17 103.44 12.16C103.26 12.16 100.53 12.16 97.36 12.17C94.19 12.17 91.51 12.12 91.41 12.06C91.31 11.99 90.87 10.86 90.43 9.54C89.99 8.21 89.17 5.64 88.6 3.81C88.03 1.98 87.49 0.48 87.4 0.48C87.31 0.48 87.05 1 86.83 1.64Z" />
		<path class="shp1" d="M29.6 12.14C30 12.17 30.57 12.17 30.88 12.14C31.19 12.1 30.86 12.07 30.16 12.07C29.46 12.07 29.2 12.1 29.6 12.14ZM33.92 12.14C34.32 12.17 34.89 12.17 35.2 12.14C35.51 12.1 35.18 12.07 34.48 12.07C33.78 12.07 33.52 12.1 33.92 12.14ZM48.8 12.14C49.2 12.17 49.77 12.17 50.08 12.14C50.39 12.1 50.06 12.07 49.36 12.07C48.66 12.07 48.4 12.1 48.8 12.14ZM53.04 12.14C53.39 12.17 54 12.17 54.4 12.14C54.8 12.1 54.51 12.08 53.76 12.08C53.01 12.08 52.69 12.1 53.04 12.14ZM72 12.14C72.48 12.17 73.2 12.17 73.6 12.14C74 12.1 73.6 12.08 72.72 12.08C71.84 12.08 71.52 12.11 72 12.14ZM77.36 12.14C77.71 12.17 78.32 12.17 78.72 12.14C79.12 12.1 78.83 12.08 78.08 12.08C77.33 12.08 77.01 12.1 77.36 12.14ZM96.56 12.14C96.91 12.17 97.52 12.17 97.92 12.14C98.32 12.1 98.03 12.08 97.28 12.08C96.53 12.08 96.21 12.1 96.56 12.14Z" />
		<path class="shp0" d="M20.78 46.74L20.8 51.28L6.48 51.36C6.49 60.8 6.54 63.63 6.61 63.74C6.69 63.89 7.74 63.94 11 63.94L15.28 63.94L15.2 67.15L6.49 67.23C6.48 77.46 6.54 79.65 6.64 79.67C6.73 79.68 9.57 79.7 12.96 79.72C16.35 79.74 19.5 79.77 19.96 79.78L20.8 79.81C20.8 142.07 20.85 153.66 20.98 155.09C21.08 156.21 21.33 157.82 21.54 158.65C21.75 159.49 22.2 160.72 22.54 161.38C22.88 162.04 23.35 162.87 23.59 163.22C23.82 163.57 24.5 164.4 25.09 165.05C25.68 165.7 26.74 166.67 27.44 167.2C28.14 167.73 29.37 168.47 30.16 168.85C31.03 169.27 32.29 169.7 33.36 169.95C34.33 170.17 36.02 170.43 37.12 170.52C38.22 170.6 41.32 170.74 44 170.83C47.48 170.94 49.36 171.07 50.56 171.28C51.48 171.45 53.07 171.85 54.08 172.18C55.12 172.51 56.56 173.13 57.39 173.6C58.21 174.06 59.46 174.91 60.18 175.48C60.9 176.05 61.92 177.03 62.44 177.64C62.96 178.26 63.61 179.18 63.89 179.69C64.17 180.19 64.45 180.61 64.52 180.61C64.59 180.61 64.64 180.54 64.64 180.45C64.64 180.36 65.06 179.66 65.58 178.89C66.18 177.98 67.02 177.02 67.94 176.19C68.72 175.48 70.01 174.5 70.8 174.01C71.59 173.53 73 172.83 73.92 172.47C74.84 172.11 76.32 171.67 77.2 171.5C78.08 171.32 79.41 171.1 80.16 171C80.91 170.91 83.39 170.8 85.68 170.75C87.97 170.71 90.42 170.63 91.12 170.59C91.82 170.54 93.08 170.4 93.92 170.28C94.76 170.15 96.12 169.82 96.96 169.54C97.8 169.26 98.73 168.91 99.04 168.75C99.35 168.59 100.18 168.09 100.88 167.62C101.58 167.16 102.67 166.26 103.29 165.64C103.91 165.01 104.79 163.96 105.23 163.3C105.67 162.64 106.14 161.88 106.27 161.62C106.4 161.35 106.73 160.49 107.01 159.7C107.28 158.9 107.58 157.78 107.68 157.21C107.78 156.64 107.92 155.12 107.98 153.85C108.04 152.57 108.09 135.39 108.09 115.67C108.08 79.95 108.08 79.82 108.4 79.75C108.58 79.71 111.71 79.7 115.36 79.72C119.01 79.74 122.07 79.73 122.16 79.7C122.26 79.66 122.31 77.45 122.28 73.4L122.24 67.15L113.6 67.15L113.6 63.94C119.99 63.94 121.93 63.88 122.03 63.82C122.17 63.73 122.23 62.1 122.25 57.53L122.28 51.36L108.08 51.28C108.12 45.75 108.1 43.72 108.05 43.19L107.97 42.23L20.75 42.19L20.78 46.74Z" />
		<path class="shp1" d="M50.88 42.26C51.19 42.3 51.73 42.3 52.08 42.26C52.43 42.23 52.18 42.2 51.52 42.2C50.86 42.2 50.57 42.23 50.88 42.26ZM108.05 46.79C108.05 47.46 108.08 47.74 108.12 47.44C108.15 47.13 108.15 46.59 108.12 46.23C108.08 45.88 108.05 46.13 108.05 46.79ZM6.45 54.09C6.46 54.79 6.48 55.04 6.52 54.65C6.55 54.25 6.55 53.67 6.52 53.37C6.48 53.06 6.45 53.38 6.45 54.09Z" />
		<path class="shp2" d="M9.68 54.27C9.61 54.33 9.56 55.92 9.57 57.8L9.6 61.22L119.37 61.14C119.43 55.13 119.39 54.31 119.24 54.25C119.13 54.2 94.46 54.17 64.43 54.17C34.39 54.17 9.75 54.21 9.68 54.27Z" />
		<path class="shp1" d="M122.3 56.41C122.3 57.16 122.32 57.45 122.36 57.05C122.39 56.65 122.39 56.04 122.36 55.69C122.32 55.34 122.3 55.66 122.3 56.41ZM6.46 58.97C6.46 59.72 6.48 60.01 6.52 59.62C6.55 59.22 6.55 58.61 6.52 58.25C6.48 57.9 6.46 58.23 6.46 58.97ZM122.3 61.54C122.3 62.29 122.32 62.58 122.36 62.18C122.39 61.78 122.39 61.17 122.36 60.82C122.32 60.46 122.3 60.79 122.3 61.54ZM18.56 65.62L18.56 70.03L109.95 69.95L109.92 61.3L18.56 61.22L18.56 65.62ZM6.45 68.59C6.45 69.25 6.48 69.54 6.52 69.23C6.55 68.92 6.55 68.38 6.52 68.03C6.48 67.68 6.45 67.93 6.45 68.59ZM122.3 70.75C122.3 71.55 122.32 71.91 122.36 71.55C122.39 71.2 122.39 70.55 122.36 70.11C122.32 69.67 122.3 69.96 122.3 70.75Z" />
		<path class="shp2" d="M9.68 70.14C9.61 70.2 9.56 71.78 9.57 73.66L9.6 77.08L119.36 77.08C119.43 71.55 119.38 70.23 119.28 70.15C119.19 70.09 94.53 70.04 64.47 70.03C34.41 70.03 9.75 70.08 9.68 70.14Z" />
		<path class="shp1" d="M6.45 73.32C6.46 74.02 6.48 74.27 6.52 73.88C6.55 73.48 6.55 72.9 6.52 72.6C6.48 72.29 6.45 72.61 6.45 73.32ZM122.3 75.64C122.3 76.39 122.32 76.68 122.36 76.28C122.39 75.89 122.39 75.27 122.36 74.92C122.32 74.57 122.3 74.89 122.3 75.64ZM6.46 78.21C6.46 78.95 6.48 79.24 6.52 78.85C6.55 78.45 6.55 77.84 6.52 77.48C6.48 77.13 6.46 77.46 6.46 78.21ZM7.92 79.76C8.18 79.8 8.69 79.8 9.04 79.76C9.39 79.73 9.18 79.7 8.56 79.7C7.94 79.7 7.66 79.73 7.92 79.76ZM12.64 79.76C13.04 79.8 13.61 79.8 13.92 79.76C14.23 79.73 13.9 79.7 13.2 79.7C12.5 79.7 12.24 79.73 12.64 79.76ZM17.44 79.76C17.84 79.8 18.41 79.8 18.72 79.76C19.03 79.73 18.7 79.7 18 79.7C17.3 79.7 17.04 79.73 17.44 79.76ZM113.44 79.76C113.84 79.8 114.41 79.8 114.72 79.76C115.03 79.73 114.7 79.7 114 79.7C113.3 79.7 113.04 79.73 113.44 79.76ZM118.24 79.76C118.64 79.8 119.21 79.8 119.52 79.76C119.83 79.73 119.5 79.7 118.8 79.7C118.1 79.7 117.84 79.73 118.24 79.76Z" />
		<path class="shp3" d="M39.2 82.61C39.2 82.74 39.6 83.63 40.09 84.58C40.58 85.52 41.32 86.77 41.73 87.34C42.14 87.91 42.69 88.62 42.95 88.92C43.22 89.22 43.86 89.87 44.37 90.36C44.89 90.86 45.72 91.57 46.21 91.94C46.71 92.31 47.66 92.88 48.32 93.21C48.98 93.53 50.02 93.97 50.64 94.18C51.26 94.39 52.59 94.77 53.6 95.03C54.61 95.29 56.09 95.61 56.88 95.74C57.67 95.88 58.61 95.99 58.96 96C59.31 96 59.69 96.05 59.8 96.12C59.95 96.21 59.99 101.16 59.96 119.29L59.92 142.34C57.32 143.27 56.24 143.7 55.84 143.91C55.44 144.11 54.76 144.54 54.32 144.87C53.88 145.19 53.31 145.71 53.06 146.01C52.8 146.31 52.46 146.84 52.3 147.2C52.14 147.55 52.01 148.11 52 148.44C52 148.87 52.11 149.15 52.4 149.44C52.73 149.77 52.9 149.82 53.4 149.74C53.73 149.69 54.5 149.38 55.1 149.06C55.71 148.74 56.36 148.39 56.54 148.28C56.73 148.17 57.31 148.01 57.84 147.92C58.37 147.83 59.34 147.76 60 147.76C60.66 147.75 61.74 147.89 62.4 148.06C63.06 148.22 64 148.56 64.48 148.8C65.06 149.09 65.88 149.78 66.88 150.8C68.04 151.98 68.67 152.49 69.56 152.94C70.2 153.26 71.28 153.67 71.96 153.84C72.79 154.06 73.73 154.16 74.8 154.16C75.68 154.16 76.76 154.07 77.2 153.95C77.64 153.83 78.32 153.57 78.72 153.37C79.12 153.16 79.8 152.73 80.24 152.4C80.68 152.08 81.24 151.53 81.49 151.19C81.78 150.78 81.95 150.33 81.97 149.9C81.99 149.54 81.89 149.05 81.76 148.8C81.63 148.56 81.32 148.26 81.08 148.14C80.84 148.02 80.42 147.92 80.16 147.92C79.9 147.92 79.01 148.11 78.2 148.34C77.13 148.64 76.5 148.74 75.92 148.68C75.48 148.63 74.69 148.38 74.16 148.11C73.63 147.85 72.3 146.96 71.2 146.15C70.08 145.32 68.57 144.36 67.76 143.98C66.97 143.61 65.83 143.15 65.24 142.96L64.16 142.63L64.16 119.23L70.56 119.23L70.56 125.64L75.2 125.64L75.2 107.21L70.64 107.29L70.56 113.3L64.16 113.3L64.15 95.91C65.58 95.58 66.95 95.12 68.12 94.69C69.29 94.26 70.8 93.77 71.48 93.59C72.16 93.42 73.37 93.21 74.16 93.12C75.02 93.04 76.12 93.03 76.88 93.12C77.58 93.2 78.59 93.41 79.12 93.59C79.65 93.77 80.44 94.13 80.88 94.38C81.32 94.62 82.26 95.26 82.96 95.79C83.66 96.32 84.92 97.18 85.76 97.71C86.6 98.23 87.68 98.82 88.16 99.03C88.64 99.23 89.4 99.43 89.84 99.47C90.34 99.52 90.85 99.46 91.2 99.31C91.51 99.18 91.96 98.85 92.2 98.58C92.44 98.3 92.69 97.81 92.74 97.48C92.8 97.15 92.8 96.05 92.75 95.03C92.7 94.02 92.52 92.68 92.35 92.07C92.19 91.45 91.86 90.58 91.63 90.14C91.41 89.7 90.91 88.95 90.52 88.46C90.14 87.98 89.32 87.2 88.71 86.74C88.1 86.28 87.1 85.69 86.48 85.43C85.86 85.17 84.93 84.84 84.4 84.7C83.87 84.56 82.79 84.37 82 84.28C80.95 84.15 80.06 84.15 78.72 84.28C77.71 84.38 76.48 84.56 76 84.67C75.52 84.79 73.86 85.29 72.32 85.78C70.78 86.27 68.76 86.82 67.84 87C66.92 87.18 65.4 87.41 64.48 87.5C63.56 87.59 61.27 87.66 59.4 87.66C57.32 87.66 55.27 87.57 54.12 87.42C53.09 87.29 51.52 87.03 50.64 86.84C49.76 86.66 48.21 86.26 47.2 85.95C46.19 85.64 44.6 85.07 43.68 84.66C42.76 84.26 41.6 83.71 41.12 83.44C40.64 83.18 40.04 82.82 39.8 82.66C39.56 82.5 39.32 82.37 39.28 82.37C39.24 82.37 39.2 82.48 39.2 82.61Z" />
		<path class="shp1" d="M108.05 85.26C108.05 85.92 108.08 86.21 108.12 85.9C108.15 85.59 108.15 85.05 108.12 84.7C108.08 84.34 108.05 84.6 108.05 85.26Z" />
		<path class="shp0" d="M7.33 94.27C7.1 94.65 6.57 95.96 6.16 97.2C5.74 98.43 5.27 100.05 5.1 100.8C4.92 101.55 4.7 102.56 4.59 103.04L4.39 103.93C3.81 102.19 3.31 101.06 2.9 100.3C2.49 99.54 1.85 98.58 1.48 98.18C1.11 97.77 0.76 97.45 0.72 97.48C0.68 97.5 0.56 97.98 0.45 98.56C0.3 99.4 0.32 100.12 0.54 102.32C0.68 103.82 0.9 105.37 1.02 105.77C1.14 106.17 1.29 106.89 1.36 107.37C1.42 107.86 1.58 108.65 1.71 109.13C1.83 109.62 2.07 110.52 2.24 111.14C2.4 111.75 2.82 113.13 3.17 114.18C3.52 115.24 3.9 116.32 4.01 116.59C4.11 116.85 4.52 117.72 4.9 118.51C5.29 119.3 5.84 120.26 6.12 120.64L6.64 121.34C6.33 123.37 5.92 124.97 5.54 126.2C5.16 127.44 4.72 128.99 4.57 129.65C4.42 130.31 4.22 131.1 4.13 131.41L3.96 131.97C3.16 129.98 2.72 129 2.47 128.51C2.21 128.02 1.68 127.21 1.28 126.71C0.88 126.21 0.47 125.8 0.36 125.8C0.24 125.8 0.12 126.11 0.06 126.56C0 126.98 0 128.15 0.05 129.17C0.11 130.18 0.22 131.59 0.31 132.29C0.4 133 0.62 134.22 0.81 135.02C1 135.81 1.18 136.71 1.22 137.02C1.26 137.33 1.58 138.55 1.94 139.74C2.31 140.93 2.88 142.72 3.22 143.71C3.56 144.7 4.14 146.11 4.51 146.83C4.87 147.56 5.41 148.48 5.7 148.88L6.22 149.6C5.97 151.46 5.95 152.83 6 153.85C6.06 154.86 6.13 156.01 6.18 156.41C6.22 156.81 6.33 157.67 6.41 158.33C6.5 158.99 6.6 159.7 6.65 159.9C6.69 160.09 6.67 160.25 6.6 160.25C6.53 160.25 6.23 159.91 5.92 159.5C5.61 159.09 4.86 158.26 4.24 157.66C3.62 157.06 3.07 156.57 3 156.57C2.93 156.57 2.79 156.48 2.68 156.36C2.57 156.25 2.14 155.96 1.72 155.72L0.96 155.29C0.95 156.22 1.05 156.78 1.18 157.13C1.3 157.48 1.62 158.26 1.9 158.85C2.17 159.45 2.4 159.97 2.4 160.02C2.4 160.06 2.92 161.05 3.56 162.22C4.19 163.39 4.79 164.42 4.89 164.5C4.99 164.59 5.51 165.4 6.05 166.31C6.6 167.21 7.11 167.95 7.2 167.95C7.29 167.95 7.36 168.04 7.37 168.15C7.37 168.26 7.64 168.71 7.97 169.15C8.29 169.59 8.83 170.27 9.17 170.67C9.5 171.07 9.92 171.57 10.1 171.79C10.28 172.02 11.12 172.91 11.97 173.78C12.82 174.65 13.7 175.45 13.92 175.56C14.14 175.68 14.97 176.47 15.76 177.34C16.55 178.2 17.7 179.27 18.32 179.73C18.94 180.19 19.68 180.66 19.97 180.78C20.26 180.91 20.49 181.06 20.49 181.13C20.48 181.2 20.61 181.29 20.76 181.33C20.91 181.38 21.18 181.51 21.36 181.61C21.54 181.72 22 182.05 22.4 182.34C22.8 182.63 23.25 182.86 23.4 182.86C23.55 182.85 23.68 182.91 23.68 182.97C23.67 183.04 24.07 183.27 24.55 183.49C25.03 183.71 25.39 183.95 25.35 184.01C25.31 184.08 24.18 184.12 22.84 184.1C21.42 184.08 20.02 184.15 19.48 184.26C18.85 184.4 18.51 184.55 18.4 184.78C18.31 184.95 18.24 185.11 18.24 185.14C18.23 185.16 18.36 185.32 18.52 185.5C18.67 185.67 18.95 185.9 19.12 186C19.3 186.1 19.73 186.23 20.08 186.29C20.43 186.35 20.99 186.51 21.32 186.63C21.65 186.76 22.12 186.86 22.36 186.86C22.6 186.86 23.25 187.01 23.8 187.18C24.35 187.36 25.16 187.5 25.6 187.5C26.04 187.5 26.44 187.57 26.48 187.66C26.52 187.75 26.87 187.82 27.24 187.82C27.61 187.82 28.32 187.89 28.8 187.97C29.28 188.06 30.08 188.17 30.56 188.22C31.04 188.27 32.74 188.38 34.32 188.47C35.9 188.55 37.85 188.57 38.64 188.51C39.43 188.45 40.15 188.39 40.24 188.38C40.33 188.37 40.65 188.31 40.96 188.25C41.27 188.19 41.93 188.1 42.44 188.06C43.11 188 43.39 188.04 43.48 188.2C43.55 188.32 43.78 188.45 44 188.5C44.22 188.54 45.41 188.85 46.64 189.18C47.87 189.51 48.97 189.86 49.09 189.96C49.2 190.06 49.24 190.19 49.17 190.25C49.1 190.31 48.72 190.53 48.32 190.75C47.92 190.97 47.13 191.4 46.56 191.7C45.99 192 45.2 192.46 44.8 192.71C44.4 192.96 43.73 193.46 43.31 193.82C42.88 194.18 42.4 194.72 42.22 195.03C42.05 195.34 41.95 195.63 42.01 195.67C42.06 195.72 43.09 195.78 44.29 195.81C45.5 195.84 47.2 195.77 48.08 195.67C48.96 195.56 50.36 195.27 51.2 195.02C52.04 194.77 53.6 194.21 54.67 193.79C55.75 193.37 56.63 193.08 56.63 193.15C56.64 193.22 56.58 193.29 56.52 193.31C56.45 193.33 55.95 193.89 55.42 194.55C54.88 195.21 54 196.44 53.46 197.28C52.7 198.45 52.48 198.93 52.48 199.4L52.48 200L55.92 200C56.35 198.57 56.75 197.62 57.08 196.96C57.42 196.29 58.1 195.14 58.59 194.39C59.09 193.64 59.91 192.57 60.43 192.01C60.94 191.44 61.56 190.88 61.8 190.76C62.09 190.62 62.83 190.54 64 190.54C65.17 190.54 65.91 190.62 66.2 190.76C66.44 190.88 67.06 191.44 67.57 192.01C68.08 192.57 68.92 193.64 69.42 194.39C69.93 195.14 70.64 196.37 70.99 197.12C71.34 197.86 71.73 198.82 71.85 199.24L72.08 200L75.52 200C75.52 199.13 75.39 198.61 75.22 198.28C75.06 197.95 74.64 197.29 74.3 196.81C73.96 196.34 73.27 195.44 72.77 194.81C72.27 194.18 71.75 193.54 71.61 193.39C71.47 193.24 71.36 193.07 71.36 193.03C71.36 192.98 72.24 193.32 73.32 193.77C74.4 194.23 75.64 194.7 76.08 194.83C76.52 194.96 77.24 195.16 77.68 195.29C78.12 195.41 78.95 195.57 79.52 195.63C80.09 195.7 81.76 195.75 83.23 195.75C84.69 195.75 85.94 195.7 85.99 195.63C86.04 195.57 85.96 195.31 85.81 195.07C85.66 194.83 85.21 194.29 84.81 193.87C84.41 193.45 84.03 193.11 83.96 193.11C83.89 193.11 83.5 192.88 83.08 192.61C82.66 192.33 81.67 191.78 80.88 191.39C80.09 190.99 79.28 190.53 79.08 190.36C78.81 190.14 78.77 190.03 78.92 189.92C79.03 189.83 79.41 189.7 79.76 189.61C80.11 189.52 80.83 189.33 81.36 189.19C81.89 189.04 83 188.75 83.84 188.54C85.14 188.21 85.51 188.17 86.4 188.3C86.97 188.38 88.38 188.49 89.52 188.55C90.66 188.6 92.75 188.57 94.16 188.48C95.57 188.39 97.4 188.24 98.24 188.15C99.08 188.06 100.44 187.87 101.28 187.73C102.12 187.59 103.66 187.31 104.72 187.1C105.78 186.89 106.96 186.61 107.36 186.49C107.76 186.37 108.67 186.04 109.4 185.76C110.21 185.45 110.7 185.18 110.67 185.06C110.64 184.95 110.04 184.69 109.35 184.49C108.37 184.21 107.5 184.1 105.52 184.03C103.02 183.93 102.97 183.92 103.48 183.67C103.77 183.53 104.85 182.91 105.87 182.29C106.9 181.67 107.81 181.09 107.91 181C108 180.9 108.39 180.63 108.76 180.4C109.13 180.16 110 179.48 110.68 178.88C111.36 178.28 112.21 177.42 112.56 176.97C112.91 176.52 113.49 175.96 113.84 175.74C114.19 175.51 115.2 174.58 116.08 173.68C116.96 172.77 118.05 171.6 118.5 171.07C118.95 170.54 119.55 169.75 119.85 169.31C120.15 168.87 120.66 168.15 120.99 167.71C121.33 167.27 121.69 166.8 121.8 166.67C121.9 166.53 122.07 166.28 122.16 166.11C122.25 165.93 122.58 165.39 122.9 164.9C123.21 164.42 123.83 163.37 124.26 162.58C124.69 161.79 125.12 160.96 125.22 160.74C125.32 160.52 125.69 159.72 126.04 158.97C126.39 158.23 126.77 157.32 126.87 156.97C126.98 156.62 127.04 156.1 127.01 155.82L126.96 155.31C125.44 156.23 124.75 156.71 124.46 156.98C124.16 157.25 123.52 157.9 123.04 158.42C122.55 158.95 121.99 159.59 121.79 159.86C121.6 160.12 121.4 160.3 121.37 160.26C121.33 160.21 121.4 159.53 121.52 158.73C121.64 157.94 121.78 156.9 121.82 156.41C121.87 155.93 121.95 154.74 122 153.77C122.06 152.8 122.03 151.46 121.94 150.8C121.79 149.65 121.8 149.58 122.17 149.08C122.38 148.79 122.56 148.52 122.56 148.48C122.56 148.43 122.86 147.87 123.23 147.24C123.59 146.6 124.21 145.28 124.6 144.31C124.99 143.34 125.36 142.26 125.43 141.91C125.51 141.55 125.82 140.44 126.12 139.42C126.43 138.41 126.8 136.97 126.94 136.22C127.09 135.47 127.32 134.31 127.45 133.65C127.59 132.99 127.76 132.06 127.83 131.57C127.91 131.09 127.97 129.68 127.98 128.45C127.98 127.21 127.93 126.08 127.87 125.93C127.81 125.78 127.68 125.7 127.58 125.77C127.49 125.83 127.09 126.28 126.69 126.76C126.3 127.25 125.86 127.82 125.71 128.04C125.57 128.27 125.13 129.24 124.74 130.21L124.03 131.97C123.76 130.98 123.51 130.04 123.3 129.25C123.09 128.45 122.86 127.52 122.8 127.16C122.74 126.81 122.48 125.98 122.23 125.32C121.97 124.66 121.68 123.49 121.56 122.73L121.36 121.34C122.13 120.26 122.76 119.12 123.25 118.11C123.75 117.1 124.34 115.73 124.56 115.06C124.79 114.4 125.18 113.14 125.43 112.26C125.68 111.38 126.03 110.08 126.21 109.38C126.39 108.67 126.66 107.44 126.81 106.65C126.96 105.86 127.15 104.81 127.22 104.33C127.3 103.84 127.43 102.98 127.52 102.4C127.61 101.83 127.69 101.29 127.69 101.2C127.69 101.11 127.65 100.28 127.6 99.36C127.55 98.43 127.44 97.6 127.37 97.52C127.28 97.42 127 97.62 126.61 98.05C126.28 98.44 125.79 99.05 125.54 99.42C125.29 99.78 124.93 100.44 124.73 100.88C124.53 101.32 124.2 102.19 124 102.8L123.62 103.93C123.08 101.57 122.7 100.09 122.43 99.12C122.16 98.15 121.71 96.74 121.44 95.99C121.17 95.24 120.83 94.42 120.68 94.16C120.52 93.91 120.33 93.67 120.24 93.64C120.15 93.61 119.95 93.85 119.78 94.19C119.62 94.52 119.25 95.4 118.96 96.15C118.62 97.03 118.25 98.52 117.93 100.32C117.66 101.86 117.4 103.29 117.36 103.49C117.31 103.68 117.21 103.85 117.12 103.85C117.03 103.85 116.6 103 116.15 101.96C115.7 100.93 115.29 100.04 115.22 100C115.16 99.96 114.88 99.56 114.59 99.12C114.31 98.68 113.92 98.13 113.72 97.91C113.52 97.69 113.23 97.45 113.08 97.39C112.84 97.29 112.8 97.37 112.8 97.88C112.8 98.21 112.87 99.29 112.96 100.28C113.05 101.27 113.34 103.38 113.6 104.97C113.86 106.55 114.14 108.01 114.22 108.21C114.3 108.41 114.48 109.08 114.63 109.7C114.77 110.31 115.03 111.29 115.21 111.86C115.39 112.43 115.65 113.26 115.79 113.7C115.93 114.14 116.17 114.76 116.33 115.06C116.49 115.37 116.89 116.2 117.22 116.91C117.55 117.61 118.09 118.64 118.43 119.19C118.76 119.74 119.04 120.26 119.04 120.35C119.04 120.44 119.09 120.51 119.16 120.51C119.23 120.51 119.34 121.32 119.4 122.31C119.52 124.05 119.51 124.17 119.05 125.56C118.79 126.35 118.39 127.98 118.17 129.17C117.95 130.36 117.76 131.56 117.76 131.85C117.76 132.14 117.71 132.37 117.64 132.38C117.57 132.38 117.28 131.82 116.98 131.14C116.68 130.45 116.29 129.56 116.11 129.17C115.93 128.77 115.57 128.12 115.31 127.72C115.05 127.33 114.54 126.7 114.18 126.32C113.82 125.94 113.41 125.64 113.28 125.64C113.08 125.64 113.06 125.8 113.16 126.64C113.23 127.19 113.35 128.44 113.44 129.41C113.53 130.38 113.67 131.49 113.75 131.89C113.83 132.29 113.98 133.12 114.08 133.73C114.18 134.35 114.45 135.61 114.67 136.54C114.89 137.46 115.11 138.4 115.15 138.62C115.19 138.84 115.29 139.17 115.36 139.34C115.43 139.52 115.65 140.13 115.83 140.71C116.01 141.28 116.16 141.87 116.16 142.03C116.16 142.18 116.23 142.31 116.32 142.31C116.41 142.31 116.48 142.42 116.48 142.55C116.48 142.68 116.73 143.31 117.03 143.95C117.33 144.59 117.61 145.26 117.66 145.43C117.71 145.61 118.23 146.51 118.8 147.44C119.8 149.05 119.84 149.16 119.85 150.16C119.85 151.09 119.79 151.29 119.3 152C118.99 152.44 118.5 153.17 118.19 153.61C117.89 154.05 117.13 155.29 116.5 156.37C115.87 157.45 115.31 158.33 115.24 158.33C115.17 158.33 115.07 157.34 115 156.13C114.94 154.92 114.83 153.89 114.76 153.85C114.69 153.8 114.55 153.44 114.45 153.04C114.35 152.65 114.11 151.98 113.93 151.56C113.75 151.14 113.53 150.8 113.44 150.8C113.35 150.8 113.24 151 113.19 151.24C113.14 151.48 112.96 152.15 112.79 152.72C112.62 153.3 112.26 154.7 111.99 155.85C111.72 157 111.42 158.51 111.34 159.21C111.25 159.92 111.11 160.86 111.02 161.3C110.94 161.74 110.8 163.22 110.71 164.58C110.62 166.13 110.61 167.98 110.7 169.47C110.79 170.95 110.99 172.5 111.22 173.5L111.6 175.12C110.61 176.11 110.17 176.57 109.98 176.78C109.69 177.11 109.45 177.18 108.14 177.28C107.32 177.34 105.6 177.59 104.32 177.82C103.04 178.05 101.68 178.27 101.28 178.31L100.56 178.39C101.18 177.85 101.58 177.51 101.84 177.28C102.1 177.05 102.75 176.47 103.28 175.98C103.81 175.5 104.46 174.82 104.72 174.47C104.98 174.12 105.36 173.58 105.55 173.26C105.74 172.94 105.9 172.55 105.91 172.4C105.91 172.24 105.88 172.12 105.84 172.12C105.8 172.12 104.81 172.54 103.64 173.07C102.47 173.59 101.3 174.12 101.04 174.23C100.78 174.35 99.77 174.84 98.8 175.34C97.83 175.84 96.82 176.38 96.54 176.54C96.27 176.71 95.55 177.13 94.94 177.48C94.34 177.84 93.44 178.41 92.96 178.77C92.48 179.12 91.86 179.55 91.6 179.72C91.34 179.88 90.55 180.46 89.85 181C89.16 181.53 87.93 182.6 87.13 183.36C86.33 184.12 85.46 185.04 85.2 185.4C84.94 185.76 84.59 186.05 84.44 186.05C84.29 186.06 83.49 185.8 82.68 185.48C81.87 185.16 81.15 184.87 81.08 184.84C81.01 184.8 81.14 184.58 81.36 184.33C81.58 184.09 82.13 183.43 82.58 182.85C83.04 182.28 83.61 181.36 83.86 180.81C84.11 180.26 84.39 179.52 84.48 179.17C84.59 178.74 84.59 178.5 84.48 178.45C84.39 178.4 83.26 178.66 81.96 179.01C80.66 179.36 78.99 179.84 78.24 180.06C77.49 180.29 76.12 180.69 75.2 180.95C74.28 181.22 72.84 181.77 72 182.18C70.75 182.8 70.24 183.18 69.11 184.29C68.36 185.04 67.42 186.08 67.03 186.59L66.32 187.51L61.68 187.51C60.67 186.2 59.7 185.15 58.87 184.32C57.57 183.04 57.14 182.73 55.84 182.11C55 181.71 53.67 181.2 52.88 180.98C52.09 180.76 50.29 180.23 48.88 179.81C47.47 179.38 45.73 178.89 45 178.7C44.27 178.52 43.64 178.37 43.6 178.37C43.56 178.37 43.52 178.49 43.52 178.65C43.52 178.8 43.65 179.36 43.81 179.89C43.98 180.42 44.21 181.03 44.32 181.25C44.44 181.47 45.04 182.32 45.67 183.14C46.29 183.96 46.87 184.63 46.95 184.62C47.05 184.62 47.05 184.67 46.95 184.77C46.87 184.86 46.12 185.19 45.28 185.5C44.44 185.81 43.65 186.06 43.52 186.07C43.39 186.07 43.1 185.9 42.87 185.7C42.65 185.5 42.38 185.14 42.27 184.9C42.17 184.65 41.83 184.29 41.52 184.09C41.22 183.9 40.96 183.66 40.97 183.57C40.97 183.49 40.52 183 39.96 182.49C39.41 181.99 38.67 181.37 38.31 181.13C37.95 180.89 37.34 180.44 36.95 180.13C36.56 179.82 36.12 179.5 35.97 179.41C35.82 179.32 35.42 179.06 35.09 178.83C34.75 178.6 34.08 178.16 33.6 177.85C33.12 177.54 32.43 177.12 32.08 176.91C31.73 176.71 30.61 176.1 29.6 175.56C28.59 175.01 27.51 174.46 27.2 174.32C26.89 174.18 25.7 173.66 24.56 173.17C23.42 172.67 22.39 172.27 22.28 172.27C22.17 172.27 22.08 172.29 22.08 172.32C22.07 172.34 22.18 172.63 22.32 172.96C22.45 173.29 22.93 174.01 23.39 174.56C23.85 175.11 24.62 175.94 25.11 176.4C25.6 176.86 26.14 177.29 26.32 177.35C26.5 177.41 26.91 177.66 27.24 177.91C27.68 178.24 27.77 178.39 27.6 178.45C27.47 178.49 27.2 178.53 27 178.53C26.8 178.53 26.35 178.43 26 178.31C25.65 178.19 24.89 178.04 24.32 177.99C23.75 177.93 22.88 177.78 22.4 177.64C21.92 177.51 20.81 177.35 19.94 177.28L18.36 177.16C16.9 175.67 16.48 175.13 16.48 175C16.49 174.87 16.56 174.47 16.65 174.12C16.75 173.77 16.95 172.5 17.1 171.31C17.26 170.05 17.37 168.22 17.36 166.91C17.35 165.67 17.25 163.76 17.14 162.66C17.03 161.56 16.87 160.44 16.79 160.18C16.71 159.91 16.64 159.48 16.64 159.21C16.64 158.95 16.54 158.27 16.42 157.69C16.3 157.12 16.08 156.22 15.94 155.69C15.8 155.16 15.61 154.33 15.52 153.85C15.43 153.36 15.19 152.48 15 151.88C14.8 151.28 14.57 150.82 14.48 150.85C14.39 150.88 14.11 151.48 13.86 152.18C13.61 152.87 13.34 153.59 13.25 153.77C13.17 153.94 13.06 155.04 12.99 156.21C12.93 157.38 12.82 158.36 12.74 158.38C12.66 158.4 12.34 157.93 12.02 157.34C11.7 156.74 11.08 155.66 10.65 154.93C10.21 154.2 9.56 153.21 9.19 152.72C8.83 152.24 8.45 151.68 8.34 151.48C8.24 151.28 8.16 150.67 8.15 150.12C8.15 149.19 8.21 149.03 8.92 147.92C9.34 147.26 10.1 145.83 10.6 144.75C11.11 143.67 11.52 142.7 11.52 142.59C11.51 142.48 11.57 142.33 11.64 142.25C11.7 142.17 11.89 141.74 12.04 141.29C12.2 140.83 12.55 139.64 12.82 138.62C13.09 137.61 13.41 136.35 13.52 135.82C13.63 135.29 13.88 134.03 14.06 133.01C14.25 132 14.4 130.9 14.4 130.57C14.4 130.24 14.46 129.84 14.54 129.69C14.62 129.53 14.71 128.56 14.74 127.52C14.79 126.09 14.75 125.64 14.6 125.64C14.49 125.64 14.06 126.02 13.64 126.49C13.22 126.96 12.71 127.67 12.51 128.06C12.3 128.45 12.03 128.95 11.91 129.17C11.79 129.39 11.43 130.2 11.12 130.97C10.81 131.74 10.51 132.37 10.44 132.37C10.37 132.38 10.23 131.74 10.11 130.97C10 130.2 9.83 129.21 9.74 128.77C9.66 128.33 9.52 127.59 9.43 127.12C9.35 126.66 9.1 125.8 8.87 125.2C8.48 124.18 8.47 124.02 8.59 122.31C8.66 121.32 8.76 120.51 8.8 120.51C8.84 120.51 9.02 120.22 9.2 119.87C9.38 119.51 9.56 119.23 9.6 119.23C9.64 119.24 10.03 118.5 10.46 117.59C10.88 116.69 11.36 115.69 11.51 115.38C11.66 115.08 12.08 113.92 12.45 112.82C12.81 111.72 13.32 109.95 13.59 108.89C13.85 107.84 14.18 106.39 14.31 105.69C14.44 104.98 14.7 103.27 14.88 101.88C15.05 100.49 15.2 98.93 15.2 98.4C15.2 97.74 15.14 97.43 15 97.43C14.89 97.42 14.55 97.69 14.24 98.03C13.93 98.36 13.34 99.18 12.93 99.84C12.52 100.5 11.97 101.58 11.69 102.24C11.42 102.9 11.13 103.55 11.04 103.69C10.9 103.9 10.86 103.9 10.73 103.69C10.65 103.55 10.5 102.83 10.4 102.08C10.3 101.33 10.11 100.22 9.98 99.6C9.85 98.98 9.68 98.19 9.6 97.84C9.53 97.48 9.22 96.58 8.91 95.83C8.61 95.08 8.26 94.27 8.14 94.03C8.02 93.78 7.88 93.58 7.83 93.59C7.79 93.59 7.56 93.9 7.33 94.27Z" />
		<path class="shp1" d="M108.05 99.76C108.06 100.46 108.08 100.72 108.12 100.32C108.15 99.92 108.15 99.35 108.12 99.04C108.08 98.73 108.05 99.05 108.05 99.76Z" />
		<path class="shp3" d="M40.42 101.88C40.38 101.95 39.44 104.89 38.32 108.41C37.2 111.94 36.18 115.18 36.05 115.63C35.92 116.07 35.71 116.75 35.57 117.15C35.44 117.54 34.41 120.79 33.28 124.36C32.15 127.93 31.05 131.39 30.84 132.05C30.63 132.71 30.32 133.7 30.15 134.25L29.84 135.25L26.56 135.26C26.56 139.48 26.61 140.73 26.68 140.75C26.75 140.78 29.46 140.76 32.71 140.71L38.62 140.63L38.57 135.34C34.42 135.26 34.4 135.25 34.48 134.9C34.52 134.7 34.79 133.54 35.08 132.33L35.6 130.13C45.9 130.13 47.21 130.17 47.26 130.33C47.3 130.44 47.57 131.56 47.86 132.82C48.16 134.08 48.37 135.14 48.33 135.18C48.3 135.22 47.34 135.26 46.21 135.26L44.16 135.26L44.16 140.54L56.32 140.54L56.32 135.26C52.86 135.26 52.8 135.24 52.73 134.9C52.69 134.7 51.32 129.67 49.69 123.72C48.06 117.77 46.49 112.07 46.22 111.06C45.94 110.04 45.44 108.24 45.11 107.05C44.78 105.86 44.34 104.27 44.15 103.53C43.95 102.78 43.71 102.07 43.61 101.96C43.49 101.81 42.98 101.75 41.97 101.76C41.16 101.76 40.46 101.82 40.42 101.88ZM85.53 101.96C85.49 102.07 85.12 103.21 84.72 104.49C84.31 105.77 83.76 107.5 83.49 108.33C83.23 109.17 82.81 110.5 82.56 111.3C82.31 112.09 81.7 114.04 81.21 115.63C80.71 117.21 79.9 119.77 79.41 121.31C78.93 122.86 78 125.78 77.35 127.8C76.71 129.83 75.91 132.34 75.57 133.38L74.96 135.27L71.68 135.26L71.76 140.79C72.69 140.79 75.41 140.77 78.4 140.75L83.84 140.71L83.84 135.26C80.62 135.26 79.65 135.2 79.62 135.14C79.59 135.07 79.8 134.08 80.09 132.93C80.38 131.79 80.62 130.69 80.63 130.49C80.64 130.24 80.75 130.12 81 130.09C81.2 130.07 83.84 130.08 86.87 130.13L92.39 130.21C93.16 133.44 93.43 134.57 93.49 134.82L93.6 135.26L89.28 135.26L89.36 140.46L101.52 140.46L101.6 135.26L98.02 135.18C96.56 129.96 95.79 127.18 95.36 125.64C94.93 124.1 94.44 122.3 94.26 121.63C94.09 120.97 93.4 118.45 92.73 116.03C92.07 113.6 91.33 110.93 91.1 110.1C90.88 109.26 90.44 107.67 90.14 106.57C89.84 105.47 89.49 104.21 89.36 103.77C89.24 103.33 89.07 102.71 89 102.4L88.86 101.84C86.02 101.76 85.58 101.8 85.53 101.96Z" />
		<path class="shp1" d="M108.05 104.49C108.05 105.15 108.08 105.44 108.12 105.13C108.15 104.82 108.15 104.28 108.12 103.93C108.08 103.57 108.05 103.83 108.05 104.49Z" />
		<path class="shp0" d="M86.98 110.54C86.94 110.6 86.76 111.16 86.59 111.78C86.41 112.4 85.9 114.13 85.45 115.63C85 117.12 84.45 118.93 84.24 119.63C84.03 120.34 83.57 121.87 83.21 123.04C82.85 124.2 82.56 125.2 82.56 125.24C82.56 125.28 84.43 125.32 86.72 125.32C89.01 125.32 90.88 125.27 90.88 125.2C90.89 125.13 90.09 121.78 89.11 117.75C88.13 113.72 87.27 110.42 87.19 110.42C87.12 110.42 87.02 110.47 86.98 110.54ZM41.71 110.85C41.66 111.01 41.39 111.9 41.12 112.82C40.84 113.75 40.41 115.19 40.15 116.03C39.9 116.86 39.18 119.24 38.57 121.31C37.95 123.39 37.44 125.13 37.44 125.2C37.44 125.27 39.31 125.32 41.6 125.32L45.76 125.32C45.63 124.64 44.82 121.34 43.87 117.56C42.93 113.78 42.08 110.66 41.98 110.62C41.89 110.59 41.76 110.69 41.71 110.85Z" />
		<path class="shp1" d="M108.05 118.99C108.06 119.7 108.08 119.95 108.12 119.55C108.15 119.15 108.15 118.58 108.12 118.27C108.08 117.96 108.05 118.29 108.05 118.99ZM108.05 123.72C108.05 124.38 108.08 124.67 108.12 124.36C108.15 124.05 108.15 123.51 108.12 123.16C108.08 122.8 108.05 123.06 108.05 123.72ZM108.05 138.22C108.06 138.93 108.08 139.18 108.12 138.78C108.15 138.39 108.15 137.81 108.12 137.5C108.08 137.19 108.05 137.52 108.05 138.22ZM108.05 142.95C108.05 143.61 108.08 143.9 108.12 143.59C108.15 143.28 108.15 142.74 108.12 142.39C108.08 142.04 108.05 142.29 108.05 142.95Z" />
	</g>
</svg>