<?xml version="1.0" encoding="UTF-8" standalone="no"?>
<svg
   xmlns:dc="http://purl.org/dc/elements/1.1/"
   xmlns:cc="http://creativecommons.org/ns#"
   xmlns:rdf="http://www.w3.org/1999/02/22-rdf-syntax-ns#"
   xmlns:svg="http://www.w3.org/2000/svg"
   xmlns="http://www.w3.org/2000/svg"
   viewBox="0 0 256.54666 324.66666"
   height="324.66666"
   width="256.54666"
   xml:space="preserve"
   id="svg2"
   version="1.1"><metadata
     id="metadata8"><rdf:RDF><cc:Work
         rdf:about=""><dc:format>image/svg+xml</dc:format><dc:type
           rdf:resource="http://purl.org/dc/dcmitype/StillImage" /></cc:Work></rdf:RDF></metadata><defs
     id="defs6" /><g
     transform="matrix(1.3333333,0,0,-1.3333333,0,324.66667)"
     id="g10"><g
       transform="scale(0.1)"
       id="g12"><path
         id="path14"
         style="fill:#d4b943;fill-opacity:1;fill-rule:nonzero;stroke:none"
         d="m 962.055,0 c 79.865,100.07 267.965,184.199 401.425,254.922 l 58.81,31.547 c 203.68,109.422 371.73,257 427.25,331.91 61.64,83.121 74.58,194.5 74.58,273.281 v 1480.33 l -71.43,9.56 c -16.28,2.18 -404.49,53.41 -890.627,53.41 -486.137,0 -874.3364,-51.23 -890.6255,-53.41 L 0,2371.99 V 891.66 C 0,812.879 12.9375,701.5 74.5781,618.379 130.102,543.469 298.148,395.891 501.832,286.469 l 58.809,-31.547 C 694.098,184.199 882.199,100.07 962.055,0" /><path
         id="path16"
         style="fill:#ffffff;fill-opacity:1;fill-rule:nonzero;stroke:none"
         d="m 82.3672,899.66 c 0,-62.578 8.9414,-157.558 58.3748,-224.23 C 189.941,609.07 318.199,481.52 537.488,363.711 703.227,274.68 769.863,240.309 962.063,127.969 1154.26,240.309 1220.9,274.68 1386.64,363.711 c 219.29,117.809 347.55,245.359 396.74,311.719 49.44,66.672 58.38,161.652 58.38,224.23 v 1400.25 c 0,0 -393.46,52.68 -879.697,52.68 -486.239,0 -879.6958,-52.68 -879.6958,-52.68 V 899.66" /><path
         id="path18"
         style="fill:#e41d25;fill-opacity:1;fill-rule:nonzero;stroke:none"
         d="M 659.547,2313.71 C 393.496,2302.5 187.125,2279.98 114.699,2271.35 V 899.66 c 0,-61.5 9.02,-146.988 52.02,-204.98 19.558,-26.379 130.086,-164.95 386.066,-302.489 l 58.703,-31.48 c 16.926,-9.07 32.785,-17.582 48.059,-25.781 v 1978.78" /><path
         id="path20"
         style="fill:#e41d25;fill-opacity:1;fill-rule:nonzero;stroke:none"
         d="M 1264.59,2313.71 V 334.93 c 15.33,8.242 31.25,16.769 48.24,25.879 l 58.5,31.382 c 255.99,137.539 366.53,276.11 386.07,302.489 43,57.992 52.04,143.48 52.04,204.98 v 1371.69 c -72.46,8.63 -278.89,31.15 -544.85,42.36" /><path
         id="path22"
         style="fill:#ffffff;fill-opacity:1;fill-rule:nonzero;stroke:none"
         d="m 286.543,1213.58 h 68.316 v 157.6 h 141.246 v 62.73 H 354.859 v 87.78 h 163.633 v 62.74 H 286.543 v -370.85" /><path
         id="path24"
         style="fill:#e41d25;fill-opacity:1;fill-rule:nonzero;stroke:none"
         d="m 1013.53,1440.49 c -5.16,-8.26 -12.27,-14.34 -21.354,-18.21 -9.071,-3.89 -27.071,-5.82 -54,-5.82 h -37.391 v 105.23 h 33.004 c 24.613,0 41.008,-0.85 49.156,-2.53 11.078,-2.19 20.225,-7.68 27.475,-16.44 7.23,-8.77 10.84,-19.9 10.84,-33.39 0,-10.97 -2.58,-20.58 -7.73,-28.84 z m 9.82,138.37 c -12.63,3.71 -39.702,5.57 -81.252,5.57 H 832.469 v -370.85 h 68.316 v 139.89 h 44.543 c 30.938,0 54.547,1.77 70.852,5.31 12,2.87 23.81,8.73 35.43,17.58 11.62,8.86 21.2,21.04 28.73,36.56 7.55,15.51 11.32,34.65 11.32,57.42 0,29.51 -6.54,53.59 -19.63,72.22 -13.07,18.63 -29.3,30.74 -48.68,36.3" /><path
         id="path26"
         style="fill:#ffffff;fill-opacity:1;fill-rule:nonzero;stroke:none"
         d="m 1637.59,1521.69 v 62.74 h -231.95 v -370.85 h 68.32 v 157.6 h 141.24 v 62.73 h -141.24 v 87.78 h 163.63" /></g></g></svg>